# xmcd
#
# Track frame offsets:
#	150
#	10320
#	22572
#	32900
#	44929
#	55863
#	66830
#	77856
#	86925
#	92205
#
# Disc length: 1293 seconds
#
# Revision: 0
# Processed by: cddbd v1.4PL0 Copyright (c) Steve Scherf et al.
# Submitted via: EasyCDDAExtractor 4.6.9.1
#
DISCID=81050b0a
DTITLE=Flatt And Scruggs - The Louisiana Hayride Archives
DYEAR=1900
DGENRE=Country
TTITLE0=Company Coming
TTITLE1=Find Me A Place To Lay Down
TTITLE2=A Hundred Years From Now
TTITLE3=I Found Her When The Snow Was On The Ground
TTITLE4=I'm Going Back To Alabam
TTITLE5=I'm Crazy Over You
TTITLE6=Joy Bells
TTITLE7=Salty Dog
TTITLE8=Will You Be Loving Another Man
TTITLE9=Worried Steel Blues
EXTD=
EXTT0=
EXTT1=
EXTT2=
EXTT3=
EXTT4=
EXTT5=
EXTT6=
EXTT7=
EXTT8=
EXTT9=
PLAYORDER=
